<?xml version="1.0" encoding="UTF-8"?>
<svg width="42px" height="42px" viewBox="0 0 42 42" version="1.1" xmlns="http://www.w3.org/2000/svg" xmlns:xlink="http://www.w3.org/1999/xlink">
    <!-- Generator: Sketch 44.1 (41455) - http://www.bohemiancoding.com/sketch -->
    <title>logo</title>
    <desc>Created with Sketch.</desc>
    <defs></defs>
    <g id="Page-1" stroke="none" stroke-width="1" fill="none" fill-rule="evenodd">
        <g id="logo">
            <g id="图层_1">
                <g id="Group">
                    <circle id="Oval-2" fill="#FFFFFF" cx="21" cy="21" r="21"></circle>
                    <path d="M20.9251337,2.48930481 C10.7245989,2.48930481 2.47058824,10.7433155 2.47058824,20.9438503 C2.47058824,31.144385 10.7245989,39.3983957 20.9251337,39.3983957 C31.1256684,39.3983957 39.3796791,31.1256684 39.3796791,20.9438503 C39.3796791,10.7620321 31.1069519,2.48930481 20.9251337,2.48930481 Z M20.9251337,37.0962567 C11.9973262,37.0962567 4.79144385,29.8716578 4.79144385,20.9438503 C4.79144385,12.0160428 12.0160428,4.81016043 20.9251337,4.81016043 C29.8529412,4.81016043 37.0775401,12.0347594 37.0775401,20.9438503 C37.0588235,29.8716578 29.8342246,37.0962567 20.9251337,37.0962567 Z" id="Shape" fill="#D9244E" fill-rule="nonzero"></path>
                    <path d="M26.0909091,16.1524064 C24.6684492,14.973262 22.8529412,14.2807487 20.9251337,14.2807487 C18.9973262,14.2807487 17.1818182,14.973262 15.7593583,16.1524064 C13.3262032,12.7647059 6.77540107,13.7754011 6.77540107,19.1470588 C6.77540107,21.973262 9.04010695,24.2379679 11.7352941,24.2379679 C11.9037433,24.2379679 12.0721925,24.2379679 12.2406417,24.1818182 C12.4652406,30.0026738 16.6951872,30.8074866 20.9438503,30.8074866 C25.1737968,30.8074866 29.4224599,30.0213904 29.6470588,24.1818182 C29.815508,24.2379679 29.9839572,24.2379679 30.1524064,24.2379679 C32.8475936,24.2379679 35.1122995,21.973262 35.1122995,19.1470588 C35.0748663,13.7754011 28.5240642,12.7459893 26.0909091,16.1524064 Z M15.7406417,22.4224599 C15.0668449,22.4224599 14.5240642,21.8609626 14.5240642,21.1871658 C14.5240642,20.513369 15.0668449,19.9518717 15.7406417,19.9518717 C16.4518717,19.9518717 17.013369,20.513369 17.013369,21.1871658 C17.013369,21.8609626 16.4518717,22.4224599 15.7406417,22.4224599 Z M20.9251337,28.2058824 C19.6524064,28.2058824 18.3983957,27.5320856 18.5481283,26.2032086 L18.828877,23.8823529 C18.9411765,22.8716578 19.6524064,21.9545455 20.7005348,21.842246 L20.9251337,21.842246 L21.1497326,21.842246 C22.197861,21.9545455 22.9090909,22.8716578 23.0213904,23.8823529 L23.302139,26.2032086 C23.4518717,27.5508021 22.197861,28.2058824 20.9251337,28.2058824 Z M26.0909091,22.4224599 C25.3796791,22.4224599 24.8181818,21.8609626 24.8181818,21.1871658 C24.8181818,20.513369 25.3609626,19.9518717 26.0909091,19.9518717 C26.7459893,19.9518717 27.3074866,20.513369 27.3074866,21.1871658 C27.3074866,21.8609626 26.7459893,22.4224599 26.0909091,22.4224599 Z" id="Shape" fill="#D9244E" fill-rule="nonzero"></path>
                </g>
            </g>
        </g>
    </g>
</svg>
